<svg width="13" height="14" viewBox="0 0 13 14" fill="none" xmlns="http://www.w3.org/2000/svg">
<g clip-path="url(#clip0)">
<path d="M10.0451 8.74485L10.4015 8.02341H9.59682H6.64453V5.97653H12.4123C12.4705 6.31165 12.5 6.6558 12.5 7C12.5 8.52317 11.9242 9.91265 10.9793 10.9699L9.53228 9.52291C9.73043 9.28936 9.9043 9.0299 10.0451 8.74485ZM12.3947 5.87957L12.3947 5.87988L12.3947 5.87957Z" fill="white" stroke="white"/>
<path d="M6.50001 3.04688C5.14932 3.04688 3.96169 3.73311 3.25623 4.77032L1.78956 3.30365C2.88497 1.90133 4.58967 1 6.50001 1C7.85468 1 9.17529 1.46502 10.2322 2.31213L8.77191 3.77242C8.10551 3.29771 7.32086 3.04688 6.50001 3.04688Z" fill="white" stroke="white"/>
<path d="M8.08297 10.6157L9.59394 12.1267C8.68994 12.6793 7.63263 13 6.50001 13C4.58967 13 2.88497 12.0987 1.78956 10.6964L3.25623 9.22968C3.96169 10.2669 5.14932 10.9531 6.50001 10.9531C7.06225 10.9531 7.59749 10.8311 8.08297 10.6157Z" fill="white" stroke="white"/>
<path d="M3.10233 7.54857C3.07315 7.36882 3.04688 7.18781 3.04688 7C3.04688 6.81219 3.07315 6.63118 3.10233 6.45144L0.712461 4.06157C0.260305 4.94465 0 5.94162 0 7C0 8.05838 0.260305 9.05535 0.712486 9.93841L3.10233 7.54857Z" fill="white"/>
</g>
<defs>
<clipPath id="clip0">
<rect width="13" height="13" fill="white" transform="translate(0 0.5)"/>
</clipPath>
</defs>
</svg>
