<svg width="136" height="35" viewBox="0 0 136 35" fill="none" xmlns="http://www.w3.org/2000/svg">
    <path d="M34.319 15.5863C34.319 15.7182 34.274 15.8284 34.184 15.9195C34.0939 16.0106 33.9826 16.0562 33.8547 16.0562H30.9244C30.7942 16.0562 30.6852 16.0106 30.5952 15.9195C30.5052 15.8284 30.4601 15.7158 30.4601 15.5863V1.2066C30.4601 1.07475 30.5052 0.964466 30.5952 0.873364C30.6852 0.782262 30.7965 0.736711 30.9244 0.736711H33.895C34.0371 0.736711 34.1698 0.77507 34.2929 0.854185C34.4161 0.933299 34.5085 1.03159 34.5748 1.14907L38.5545 9.16362C38.5924 9.24274 38.6516 9.28109 38.7298 9.28109C38.8079 9.28109 38.8648 9.24274 38.9051 9.16362L42.8989 1.14667C42.9629 1.0292 43.0577 0.930902 43.1808 0.851787C43.304 0.772673 43.4367 0.734314 43.5788 0.734314H46.5493C46.6772 0.734314 46.7886 0.779865 46.8786 0.870967C46.9686 0.962068 47.0136 1.07475 47.0136 1.20421V15.5839C47.0136 15.7158 46.9686 15.826 46.8786 15.9171C46.7886 16.0082 46.6772 16.0538 46.5493 16.0538H43.6191C43.4888 16.0538 43.3798 16.0082 43.2898 15.9171C43.1998 15.826 43.1548 15.7134 43.1548 15.5839V8.59304C43.1548 8.54029 43.1311 8.50913 43.0861 8.49474C43.0411 8.48276 43.0055 8.50193 42.9795 8.55468L40.2198 14.1526C40.1558 14.2701 40.0611 14.3684 39.9379 14.4475C39.8147 14.5266 39.6821 14.565 39.5399 14.565H37.9291C37.787 14.565 37.6543 14.5266 37.5311 14.4475C37.408 14.3684 37.3132 14.2701 37.2492 14.1526L34.4919 8.55468C34.4659 8.50193 34.4303 8.48276 34.3853 8.49474C34.3403 8.50913 34.3166 8.54029 34.3166 8.59304V15.5863H34.319Z" fill="white" />
    <path d="M54.1399 1.16585C54.192 1.03399 54.2749 0.930902 54.3934 0.851787C54.5095 0.772673 54.6398 0.734314 54.7819 0.734314H57.6932C57.8353 0.734314 57.9656 0.772673 58.0817 0.851787C58.1978 0.930902 58.283 1.03639 58.3351 1.16585L64.1009 15.6247C64.1388 15.7301 64.1294 15.8284 64.0725 15.9195C64.0133 16.0106 63.928 16.0562 63.8096 16.0562H60.5098C60.3676 16.0562 60.2421 16.0178 60.1307 15.9387C60.0218 15.8596 59.9389 15.7565 59.8891 15.6247L59.3466 14.191C59.2566 13.9417 59.0813 13.817 58.8231 13.817H53.6401C53.3819 13.817 53.2066 13.9417 53.1166 14.191L52.5741 15.6247C52.522 15.7565 52.4415 15.8596 52.3325 15.9387C52.2235 16.0178 52.0956 16.0562 51.9535 16.0562H48.6537C48.5376 16.0562 48.45 16.0106 48.3907 15.9195C48.3315 15.8284 48.322 15.7301 48.3623 15.6247L54.1399 1.16585ZM57.4966 10.2616C57.6008 10.2616 57.6742 10.2233 57.7193 10.1442C57.7643 10.065 57.7737 9.98114 57.7477 9.89004L56.369 6.13808C56.343 6.07335 56.2979 6.03979 56.234 6.03979C56.17 6.03979 56.125 6.07335 56.099 6.13808L54.7013 9.89004C54.6753 9.98114 54.6848 10.0674 54.7298 10.1442C54.7748 10.2233 54.8482 10.2616 54.9524 10.2616H57.4966Z" fill="white" />
    <path d="M65.437 1.20659C65.437 1.07473 65.482 0.964449 65.572 0.873347C65.662 0.782245 65.7733 0.736694 65.9012 0.736694H68.8528C68.9807 0.736694 69.0921 0.782245 69.1821 0.873347C69.2721 0.964449 69.3171 1.07713 69.3171 1.20659V15.5863C69.3171 15.7181 69.2721 15.8284 69.1821 15.9195C69.0921 16.0106 68.9807 16.0562 68.8528 16.0562H65.9012C65.771 16.0562 65.662 16.0106 65.572 15.9195C65.482 15.8284 65.437 15.7157 65.437 15.5863V1.20659Z" fill="white" />
    <path d="M77.4707 16.3514C76.6155 16.3514 75.8149 16.2555 75.0639 16.0661C74.313 15.8767 73.6521 15.5986 73.0836 15.2318C72.5151 14.865 72.0508 14.4143 71.6954 13.8772C71.3401 13.3402 71.1293 12.7193 71.0653 12.012C71.0535 11.8682 71.0985 11.7411 71.2004 11.6285C71.3046 11.5182 71.4278 11.4606 71.5699 11.4606H74.1898C74.4101 11.4606 74.5641 11.4942 74.6565 11.5589C74.7465 11.6237 74.8507 11.7627 74.9668 11.9713C75.1089 12.2326 75.3766 12.4628 75.7722 12.6593C76.1678 12.8559 76.7079 12.9542 77.3925 12.9542C78.1174 12.9542 78.6172 12.8535 78.8967 12.6498C79.1739 12.446 79.3136 12.235 79.3136 12.012C79.3136 11.686 79.1123 11.4031 78.712 11.1682C78.3116 10.9332 77.6507 10.6575 76.7316 10.3434C76.1228 10.1469 75.4927 9.91431 74.8389 9.6458C74.1851 9.37729 73.5858 9.04644 73.0433 8.65327C72.5008 8.26009 72.0508 7.78301 71.6931 7.21961C71.3377 6.65622 71.1601 5.98255 71.1601 5.1962C71.1601 4.46259 71.3046 3.8057 71.5959 3.22073C71.8873 2.63816 72.2948 2.13949 72.8183 1.72714C73.3418 1.31478 73.9672 0.998325 74.692 0.775366C75.4193 0.550009 76.2152 0.439728 77.0822 0.439728C77.961 0.439728 78.7712 0.550009 79.5079 0.772968C80.2446 0.995928 80.8865 1.30999 81.429 1.71515C81.9715 2.12031 82.4026 2.60939 82.72 3.17757C83.0375 3.74816 83.2222 4.37388 83.2743 5.05475C83.2862 5.19859 83.2412 5.32566 83.1393 5.43834C83.0351 5.54862 82.9119 5.60615 82.7698 5.60615H80.0717C79.8893 5.60615 79.7519 5.563 79.6548 5.47909C79.5576 5.39518 79.4771 5.26093 79.4131 5.07633C79.2971 4.75028 79.0531 4.46019 78.6859 4.21086C78.3164 3.96153 77.8094 3.83686 77.1627 3.83686C76.5018 3.83686 76.0304 3.94475 75.7462 4.16051C75.4619 4.37628 75.3198 4.61602 75.3198 4.87734C75.3198 5.17941 75.5093 5.43354 75.893 5.64451C76.2744 5.85309 76.9187 6.1168 77.8236 6.43086C78.34 6.61547 78.9299 6.84082 79.5908 7.10933C80.2517 7.37784 80.8676 7.71828 81.4456 8.13063C82.0212 8.54299 82.5068 9.04644 82.9024 9.6434C83.298 10.2404 83.4946 10.9572 83.4946 11.7939C83.4946 12.5395 83.343 13.1988 83.0375 13.7693C82.7342 14.3399 82.3126 14.8146 81.7749 15.1934C81.2371 15.5722 80.6023 15.8623 79.8727 16.0589C79.136 16.2531 78.3377 16.3514 77.4707 16.3514Z" fill="white" />
    <path d="M30.4041 18.9235C30.4041 18.7916 30.4491 18.6814 30.5391 18.5903C30.6292 18.4992 30.7405 18.4536 30.8684 18.4536H37.7973C38.7685 18.4536 39.6094 18.5999 40.3201 18.8947C41.0307 19.1896 41.6206 19.5924 42.0872 20.103C42.5539 20.6137 42.8998 21.2106 43.1248 21.8915C43.3522 22.5724 43.4635 23.294 43.4635 24.0516C43.4635 25.0609 43.2503 26.0055 42.824 26.8901C42.3976 27.7748 41.7295 28.4652 40.8246 28.9639C40.7204 29.0166 40.6588 29.0909 40.6399 29.1892C40.6209 29.2875 40.6423 29.3834 40.7086 29.4745L43.4849 33.3847C43.5488 33.4758 43.5583 33.5645 43.5133 33.6508C43.4683 33.7371 43.3925 33.7779 43.2906 33.7779H39.5834C39.2849 33.7779 39.0409 33.646 38.8467 33.3847L36.4778 29.9852C36.4139 29.8797 36.3215 29.803 36.2054 29.7502C36.0893 29.6975 35.9733 29.6711 35.8548 29.6711H34.6514C34.5472 29.6711 34.4572 29.7095 34.379 29.7886C34.3009 29.8677 34.263 29.9588 34.263 30.0643V33.3056C34.263 33.4374 34.218 33.5477 34.1279 33.6388C34.0379 33.7299 33.9266 33.7755 33.7987 33.7755H30.8684C30.7381 33.7755 30.6292 33.7299 30.5391 33.6388C30.4491 33.5477 30.4041 33.435 30.4041 33.3056V18.9235ZM39.7208 24.0899C39.7208 23.5002 39.5597 23.0087 39.2352 22.6155C38.9106 22.2223 38.3611 22.0258 37.5841 22.0258H34.6538C34.5496 22.0258 34.4596 22.0641 34.3814 22.1432C34.3032 22.2223 34.2653 22.3134 34.2653 22.4189V25.7202C34.2653 25.8257 34.3032 25.9168 34.3814 25.9959C34.4596 26.075 34.5496 26.1133 34.6538 26.1133H37.5841C37.9726 26.1133 38.3018 26.0582 38.5742 25.9455C38.8467 25.8352 39.067 25.6866 39.2352 25.5044C39.4033 25.3222 39.5265 25.104 39.6047 24.8571C39.6829 24.6078 39.7208 24.3536 39.7208 24.0899Z" fill="white" />
    <path d="M45.7376 33.7755C45.6073 33.7755 45.4984 33.7299 45.4083 33.6388C45.3183 33.5477 45.2733 33.435 45.2733 33.3056V18.9235C45.2733 18.7916 45.3183 18.6814 45.4083 18.5903C45.4984 18.4992 45.6097 18.4536 45.7376 18.4536H56.4329C56.5609 18.4536 56.6722 18.4992 56.7622 18.5903C56.8522 18.6814 56.8972 18.794 56.8972 18.9235V21.7908C56.8972 21.9227 56.8522 22.033 56.7622 22.1241C56.6722 22.2152 56.5609 22.2607 56.4329 22.2607H49.542C49.4377 22.2607 49.3477 22.2991 49.2696 22.3782C49.1914 22.4573 49.1535 22.5484 49.1535 22.6539V24.0684C49.1535 24.1738 49.1914 24.2649 49.2696 24.3441C49.3477 24.4232 49.4377 24.4615 49.542 24.4615H55.0543C55.1846 24.4615 55.2935 24.5071 55.3835 24.5982C55.4736 24.6893 55.5186 24.802 55.5186 24.9314V27.5446C55.5186 27.6765 55.4736 27.7867 55.3835 27.8778C55.2935 27.9689 55.1822 28.0145 55.0543 28.0145H49.542C49.4377 28.0145 49.3477 28.0529 49.2696 28.132C49.1914 28.2111 49.1535 28.3022 49.1535 28.4077V29.5872C49.1535 29.6927 49.1914 29.7838 49.2696 29.8629C49.3477 29.942 49.4377 29.9804 49.542 29.9804H56.4329C56.5609 29.9804 56.6722 30.0259 56.7622 30.117C56.8522 30.2081 56.8972 30.3208 56.8972 30.4503V33.2984C56.8972 33.4303 56.8522 33.5405 56.7622 33.6316C56.6722 33.7227 56.5609 33.7683 56.4329 33.7683H45.7376V33.7755Z" fill="white" />
    <path d="M58.3162 22.2631C58.1859 22.2631 58.0769 22.2176 57.9869 22.1265C57.8969 22.0353 57.8519 21.9227 57.8519 21.7932V18.9235C57.8519 18.7916 57.8969 18.6814 57.9869 18.5903C58.0769 18.4992 58.1883 18.4536 58.3162 18.4536H70.7005C70.8308 18.4536 70.9397 18.4992 71.0298 18.5903C71.1198 18.6814 71.1648 18.794 71.1648 18.9235V21.7908C71.1648 21.9227 71.1198 22.033 71.0298 22.1241C70.9397 22.2152 70.8284 22.2607 70.7005 22.2607H66.8369C66.7327 22.2607 66.6427 22.2991 66.5645 22.3782C66.4863 22.4573 66.4484 22.5484 66.4484 22.6539V33.3008C66.4484 33.4327 66.4034 33.5429 66.3134 33.634C66.2234 33.7251 66.112 33.7707 65.9841 33.7707H63.0326C62.9023 33.7707 62.7933 33.7251 62.7033 33.634C62.6133 33.5429 62.5683 33.4303 62.5683 33.3008V22.6563C62.5683 22.5508 62.5304 22.4597 62.4522 22.3806C62.374 22.3015 62.284 22.2631 62.1798 22.2631H58.3162Z" fill="white" />
    <path d="M79.8821 34.0707C78.7948 34.0707 77.762 33.8621 76.7861 33.4425C75.8101 33.023 74.9549 32.4548 74.223 31.7332C73.491 31.0139 72.913 30.1725 72.4866 29.2087C72.0602 28.2449 71.847 27.214 71.847 26.1136C71.847 25.0132 72.0602 23.9823 72.4866 23.0186C72.913 22.0548 73.4934 21.2157 74.223 20.4941C74.9549 19.7749 75.8077 19.2043 76.7861 18.7847C77.762 18.3652 78.7948 18.1566 79.8821 18.1566C80.9813 18.1566 82.0212 18.3652 82.9972 18.7847C83.9731 19.2043 84.8283 19.7725 85.5603 20.4941C86.2922 21.2133 86.8679 22.0548 87.2871 23.0186C87.7064 23.9823 87.9173 25.0132 87.9173 26.1136C87.9173 27.214 87.7064 28.2449 87.2871 29.2087C86.8655 30.1725 86.2899 31.0139 85.5603 31.7332C84.8283 32.4524 83.9755 33.023 82.9972 33.4425C82.0212 33.8621 80.9813 34.0707 79.8821 34.0707ZM79.8821 21.9493C79.3112 21.9493 78.7783 22.0572 78.2808 22.273C77.7833 22.4887 77.3451 22.7836 76.9708 23.1576C76.5965 23.5316 76.3004 23.9727 76.0872 24.4834C75.8741 24.994 75.7675 25.5383 75.7675 26.1136C75.7675 26.689 75.8741 27.2332 76.0872 27.7439C76.3004 28.2545 76.5942 28.6956 76.9708 29.0696C77.3451 29.4436 77.7833 29.7385 78.2808 29.9543C78.7783 30.1701 79.3136 30.2779 79.8821 30.2779C80.4649 30.2779 81.005 30.1701 81.5024 29.9543C81.9999 29.7385 82.4334 29.4436 82.8029 29.0696C83.1725 28.6956 83.4638 28.2545 83.677 27.7439C83.8902 27.2332 83.9968 26.689 83.9968 26.1136C83.9968 25.5383 83.8902 24.994 83.677 24.4834C83.4638 23.9727 83.1725 23.5316 82.8029 23.1576C82.4334 22.7836 81.9999 22.4887 81.5024 22.273C81.005 22.0572 80.4649 21.9493 79.8821 21.9493Z" fill="white" />
    <path d="M89.5305 18.9235C89.5305 18.7916 89.5755 18.6814 89.6655 18.5903C89.7555 18.4992 89.8668 18.4536 89.9947 18.4536H96.9236C97.8948 18.4536 98.7358 18.5999 99.4464 18.8947C100.157 19.1896 100.747 19.5924 101.214 20.103C101.68 20.6137 102.026 21.2106 102.251 21.8915C102.479 22.5724 102.59 23.294 102.59 24.0516C102.59 25.0609 102.377 26.0055 101.95 26.8901C101.524 27.7748 100.856 28.4652 99.951 28.9639C99.8468 29.0166 99.7852 29.0909 99.7662 29.1892C99.7473 29.2875 99.7686 29.3834 99.8349 29.4745L102.611 33.3847C102.675 33.4758 102.685 33.5645 102.64 33.6508C102.595 33.7371 102.519 33.7779 102.417 33.7779H98.7097C98.4112 33.7779 98.1672 33.646 97.973 33.3847L95.6042 29.9852C95.5402 29.8797 95.4478 29.803 95.3317 29.7502C95.2157 29.6975 95.0996 29.6711 94.9812 29.6711H93.7778C93.6736 29.6711 93.5835 29.7095 93.5054 29.7886C93.4272 29.8677 93.3893 29.9588 93.3893 30.0643V33.3056C93.3893 33.4374 93.3443 33.5477 93.2543 33.6388C93.1643 33.7299 93.0529 33.7755 92.925 33.7755H89.9947C89.8645 33.7755 89.7555 33.7299 89.6655 33.6388C89.5755 33.5477 89.5305 33.435 89.5305 33.3056V18.9235ZM98.8471 24.0899C98.8471 23.5002 98.686 23.0087 98.3615 22.6155C98.037 22.2223 97.4874 22.0258 96.7104 22.0258H93.7802C93.6759 22.0258 93.5859 22.0641 93.5077 22.1432C93.4296 22.2223 93.3917 22.3134 93.3917 22.4189V25.7202C93.3917 25.8257 93.4296 25.9168 93.5077 25.9959C93.5859 26.075 93.6759 26.1133 93.7802 26.1133H96.7104C97.0989 26.1133 97.4282 26.0582 97.7006 25.9455C97.973 25.8352 98.1933 25.6866 98.3615 25.5044C98.5297 25.3222 98.6529 25.104 98.731 24.8571C98.8068 24.6078 98.8471 24.3536 98.8471 24.0899Z" fill="white" />
    <path d="M108.28 33.3032C108.28 33.435 108.235 33.5453 108.145 33.6364C108.055 33.7275 107.943 33.7731 107.816 33.7731H104.864C104.734 33.7731 104.625 33.7275 104.535 33.6364C104.445 33.5453 104.4 33.4326 104.4 33.3032V18.9235C104.4 18.7916 104.445 18.6814 104.535 18.5903C104.625 18.4992 104.736 18.4536 104.864 18.4536H107.233C107.557 18.4536 107.808 18.5783 107.991 18.8276L114.221 26.7055C114.259 26.7702 114.309 26.7918 114.365 26.7654C114.425 26.7391 114.453 26.6935 114.453 26.6288V18.9235C114.453 18.7916 114.498 18.6814 114.588 18.5903C114.678 18.4992 114.789 18.4536 114.917 18.4536H117.848C117.978 18.4536 118.087 18.4992 118.177 18.5903C118.267 18.6814 118.312 18.794 118.312 18.9235V33.3032C118.312 33.435 118.267 33.5453 118.177 33.6364C118.087 33.7275 117.975 33.7731 117.848 33.7731H115.498C115.173 33.7731 114.922 33.6484 114.74 33.3991L108.51 25.5404C108.472 25.4756 108.422 25.4565 108.365 25.4804C108.306 25.5068 108.277 25.5524 108.277 25.6171V33.3032H108.28Z" fill="white" />
    <path d="M127.963 34.0707C126.875 34.0707 125.842 33.8621 124.866 33.4425C123.89 33.023 123.035 32.4548 122.303 31.7332C121.571 31.0139 120.993 30.1725 120.567 29.2087C120.141 28.2449 119.927 27.214 119.927 26.1136C119.927 25.0132 120.141 23.9823 120.567 23.0186C120.993 22.0548 121.574 21.2157 122.303 20.4941C123.035 19.7749 123.888 19.2043 124.866 18.7847C125.842 18.3652 126.875 18.1566 127.963 18.1566C129.062 18.1566 130.102 18.3652 131.078 18.7847C132.054 19.2043 132.909 19.7725 133.641 20.4941C134.373 21.2133 134.948 22.0548 135.368 23.0186C135.787 23.9823 135.998 25.0132 135.998 26.1136C135.998 27.214 135.787 28.2449 135.368 29.2087C134.946 30.1725 134.37 31.0139 133.641 31.7332C132.909 32.4524 132.056 33.023 131.078 33.4425C130.102 33.8621 129.062 34.0707 127.963 34.0707ZM127.963 21.9493C127.392 21.9493 126.859 22.0572 126.361 22.273C125.864 22.4887 125.425 22.7836 125.051 23.1576C124.677 23.5316 124.381 23.9727 124.168 24.4834C123.954 24.994 123.848 25.5383 123.848 26.1136C123.848 26.689 123.954 27.2332 124.168 27.7439C124.381 28.2545 124.675 28.6956 125.051 29.0696C125.425 29.4436 125.864 29.7385 126.361 29.9543C126.859 30.1701 127.394 30.2779 127.963 30.2779C128.545 30.2779 129.085 30.1701 129.583 29.9543C130.08 29.7385 130.514 29.4436 130.883 29.0696C131.253 28.6956 131.544 28.2545 131.757 27.7439C131.971 27.2332 132.077 26.689 132.077 26.1136C132.077 25.5383 131.971 24.994 131.757 24.4834C131.544 23.9727 131.253 23.5316 130.883 23.1576C130.514 22.7836 130.08 22.4887 129.583 22.273C129.085 22.0572 128.545 21.9493 127.963 21.9493Z" fill="white" />
    <path d="M0 1.07745L8.85 10.19H16.8283V18.2645L25.8322 27.2212V1.07745H0ZM17.6739 9.33415V1.93093H24.9866V9.33415H17.6739ZM24.9866 10.19V25.181L17.6739 17.9049V10.19H24.9866ZM16.8283 9.33415H9.20296L2.01589 1.93093H16.8283V9.33415Z" fill="url(#paint0_linear)" />
    <defs>
        <linearGradient id="paint0_linear" x1="0" y1="27.2212" x2="26.1419" y2="1.39087" gradientUnits="userSpaceOnUse">
            <stop stop-color="#1DDD58" />
            <stop offset="1" stop-color="#39B8B9" />
        </linearGradient>
    </defs>
</svg>