<svg width="312" height="268" viewBox="0 0 312 268" fill="none" xmlns="http://www.w3.org/2000/svg">
<g clip-path="url(#clip0)">
<path d="M102.294 99.1448H79.1384C76.8787 99.1448 74.8474 100.839 74.7275 103.097C74.602 105.504 76.5192 107.5 78.8987 107.5H89.3923C90.5792 107.5 91.1726 108.932 90.3338 109.77L71.4123 128.682C69.8088 130.284 69.5749 132.914 71.0927 134.596C72.7075 136.387 75.475 136.444 77.1583 134.761L96.2511 115.678C97.0899 114.84 98.5221 115.433 98.5221 116.619V126.874C98.5221 129.132 100.217 131.163 102.476 131.282C104.884 131.408 106.882 129.492 106.882 127.113V103.736C106.882 101.198 104.827 99.1448 102.294 99.1448Z" fill="#F3F3F3"/>
<path d="M60.2967 139.797L56.8901 143.202C55.2582 144.833 55.2582 147.48 56.8901 149.111C58.5221 150.742 61.1697 150.742 62.8017 149.111L66.2083 145.706C67.8402 144.075 67.8402 141.428 66.2083 139.797C64.5763 138.166 61.9287 138.166 60.2967 139.797Z" fill="#F3F3F3"/>
<path d="M46.8131 153.268L46.4936 153.588C44.8616 155.219 44.8616 157.865 46.4936 159.496C48.1255 161.127 50.7732 161.127 52.4051 159.496L52.7247 159.177C54.3566 157.546 54.3566 154.899 52.7247 153.268C51.0927 151.637 48.4508 151.637 46.8131 153.268Z" fill="#F3F3F3"/>
<path d="M188.223 19.0659H161.284C158.653 19.0659 156.291 21.0335 156.154 23.6684C156.006 26.4686 158.237 28.7899 161.01 28.7899H173.221C174.602 28.7899 175.292 30.4552 174.317 31.4304L152.297 53.4278C150.437 55.287 150.163 58.3496 151.92 60.3058C153.797 62.3932 157.016 62.456 158.979 60.4941L181.187 38.2971C182.163 37.3219 183.829 38.012 183.829 39.3921V51.3233C183.829 53.9525 185.803 56.3136 188.428 56.4505C191.23 56.5988 193.552 54.3688 193.552 51.597V24.3984C193.558 21.4498 191.167 19.0602 188.223 19.0659Z" fill="#F3F3F3"/>
<path d="M139.361 66.3627L135.395 70.3264C133.495 72.2256 133.495 75.3053 135.395 77.2045C137.295 79.1037 140.377 79.1037 142.277 77.2045L146.243 73.2407C148.143 71.3416 148.143 68.2618 146.243 66.3684C144.337 64.4635 141.255 64.4635 139.361 66.3627Z" fill="#F3F3F3"/>
<path d="M123.675 82.0408L123.304 82.4115C121.404 84.3107 121.404 87.3905 123.304 89.2839C125.204 91.1831 128.285 91.1831 130.18 89.2839L130.551 88.9132C132.451 87.014 132.451 83.9343 130.551 82.0408C128.65 80.1417 125.575 80.1417 123.675 82.0408Z" fill="#F3F3F3"/>
<path d="M307.087 17.5146H282.305C279.886 17.5146 277.712 19.3282 277.586 21.7464C277.449 24.3242 279.504 26.4572 282.054 26.4572H293.29C294.556 26.4572 295.195 27.9914 294.294 28.8868L274.043 49.1275C272.331 50.8385 272.08 53.6559 273.7 55.4581C275.429 57.3744 278.391 57.4371 280.194 55.6349L300.628 35.2117C301.524 34.3163 303.058 34.9493 303.058 36.2154V47.1884C303.058 49.6066 304.873 51.7795 307.292 51.905C309.872 52.0419 312.006 49.9887 312.006 47.4394V22.4194C312 19.7103 309.797 17.5146 307.087 17.5146Z" fill="#F3F3F3"/>
<path d="M262.14 61.0245L258.494 64.6688C256.748 66.414 256.748 69.2485 258.494 70.9937C260.24 72.7389 263.076 72.7389 264.822 70.9937L268.468 67.3493C270.214 65.6041 270.214 62.7697 268.468 61.0245C266.722 59.2793 263.886 59.2793 262.14 61.0245Z" fill="#F3F3F3"/>
<path d="M247.709 75.4479L247.367 75.7901C245.621 77.5353 245.621 80.3698 247.367 82.115C249.113 83.8601 251.949 83.8601 253.695 82.115L254.037 81.7728C255.783 80.0276 255.783 77.1931 254.037 75.4479C252.291 73.7027 249.455 73.7027 247.709 75.4479Z" fill="#F3F3F3"/>
<path d="M220.394 92.7743H201.398C199.544 92.7743 197.877 94.1659 197.78 96.0194C197.678 97.9927 199.247 99.6296 201.204 99.6296H209.815C210.785 99.6296 211.275 100.804 210.585 101.489L195.064 117.002C193.752 118.313 193.558 120.475 194.802 121.855C196.126 123.326 198.397 123.372 199.777 121.992L215.435 106.342C216.126 105.652 217.295 106.143 217.295 107.112V115.524C217.295 117.378 218.688 119.043 220.536 119.14C222.516 119.243 224.148 117.675 224.148 115.718V96.5384C224.154 94.4567 222.471 92.7743 220.394 92.7743Z" fill="#F3F3F3"/>
<path d="M185.94 126.121L183.144 128.916C181.803 130.256 181.803 132.423 183.144 133.763C184.485 135.104 186.653 135.104 187.994 133.763L190.79 130.969C192.131 129.628 192.126 127.461 190.79 126.121C189.449 124.786 187.281 124.786 185.94 126.121Z" fill="#F3F3F3"/>
<path d="M174.882 137.18L174.619 137.442C173.278 138.782 173.284 140.949 174.619 142.29C175.96 143.63 178.128 143.63 179.469 142.29L179.732 142.027C181.073 140.687 181.067 138.52 179.732 137.18C178.391 135.839 176.223 135.839 174.882 137.18Z" fill="#F3F3F3"/>
<path d="M261.238 0H226.419C223.019 0 219.966 2.54364 219.789 5.94846C219.595 9.57 222.476 12.5642 226.066 12.5699H241.849C243.629 12.5699 244.525 14.72 243.264 15.9804L39.3153 219.819C36.9073 222.226 36.5535 226.184 38.8302 228.711C41.261 231.408 45.4208 231.488 47.9543 228.956L252.154 24.866C253.415 23.6056 255.566 24.4953 255.566 26.2804V41.7019C255.566 45.1011 258.117 48.1523 261.512 48.3291C265.136 48.5173 268.137 45.6372 268.137 42.0555V6.89519C268.137 3.08544 265.05 0 261.238 0Z" fill="#F3F3F3"/>
<path d="M22.5963 236.53L17.4722 241.651C15.0185 244.104 15.0185 248.084 17.4722 250.537C19.9258 252.989 23.9087 252.989 26.3623 250.537L31.4865 245.415C33.9401 242.963 33.9401 238.982 31.4865 236.53C29.0328 234.083 25.0499 234.077 22.5963 236.53Z" fill="#F3F3F3"/>
<path d="M2.31667 256.799L1.83736 257.278C-0.616278 259.73 -0.616278 263.711 1.83736 266.164C4.291 268.616 8.27388 268.616 10.7275 266.164L11.2068 265.685C13.6605 263.232 13.6605 259.251 11.2068 256.799C8.75319 254.346 4.77602 254.341 2.31667 256.799Z" fill="#F3F3F3"/>
</g>
<defs>
<clipPath id="clip0">
<rect width="312" height="268" fill="white"/>
</clipPath>
</defs>
</svg>
